<svg version="1.1" id="Layer_1" xmlns="http://www.w3.org/2000/svg" xmlns:xlink="http://www.w3.org/1999/xlink" x="0px" y="0px"
	 width="100%" viewBox="0 0 258 258" enable-background="new 0 0 258 258" xml:space="preserve">

<path fill="#6C0B06" opacity="1.000000" stroke="none" 
	d="
M137.802216,245.928650 
	C73.029175,247.955414 19.743431,204.014893 13.013517,141.621735 
	C7.460463,90.139236 27.317053,49.282810 72.368477,23.680195 
	C116.018906,-1.126242 160.264389,2.063336 201.373657,31.002392 
	C242.570862,60.003330 259.497894,112.508690 245.052780,161.556824 
	C231.096268,208.945923 188.014053,242.977432 137.802216,245.928650 
M131.970947,56.595634 
	C130.614929,59.612377 129.380325,62.692162 127.858765,65.622955 
	C126.897629,67.474274 125.532898,69.121078 124.304283,70.827271 
	C122.679329,73.083862 121.010422,75.308807 119.360405,77.547356 
	C121.888039,78.335320 124.414925,79.125710 126.945168,79.905197 
	C127.097458,79.952110 127.299751,79.859047 127.439690,79.920349 
	C129.161102,80.674385 130.875229,81.445053 132.591232,82.211426 
	C131.815384,83.877739 131.266724,85.704475 130.223419,87.181938 
	C126.214394,92.859215 120.956978,97.934647 118.169601,104.135567 
	C112.682182,116.343140 108.540756,129.155182 103.827553,141.711548 
	C101.050514,149.109833 99.620644,157.500595 95.131989,163.656418 
	C88.254288,173.088638 79.196129,180.918671 71.235672,189.586914 
	C70.054611,190.872986 68.904633,193.282730 69.314339,194.725662 
	C70.463615,198.773209 72.041489,202.709610 76.982803,204.109421 
	C79.207352,204.739609 81.255394,206.530289 83.008804,208.190231 
	C89.523491,214.357590 95.884247,213.008118 98.935539,204.644180 
	C99.447273,203.241440 99.762596,201.757248 100.369705,200.400650 
	C105.944099,187.944717 113.807167,177.477722 126.405876,171.368454 
	C128.200089,170.498428 131.385590,169.651886 132.338120,170.526031 
	C133.966431,172.020279 134.337234,174.884842 135.358566,177.485580 
	C131.899261,178.092010 129.438675,178.386215 127.057610,178.992661 
	C125.650688,179.351013 124.369621,180.203415 123.031952,180.833649 
	C124.287666,182.159088 125.328835,183.913437 126.863548,184.681122 
	C128.214203,185.356720 130.274704,185.393524 131.743942,184.894562 
	C135.138031,183.741882 137.599289,185.127899 140.555496,186.527206 
	C144.265686,188.283417 148.474258,190.461792 153.420761,187.240021 
	C151.694855,185.831558 150.555359,184.901672 148.203445,182.982346 
	C151.698807,182.982346 153.826492,183.262817 155.836899,182.897629 
	C157.589417,182.579269 159.209671,181.532715 160.888382,180.807907 
	C159.992157,179.125626 159.095917,177.443344 157.704285,174.831177 
	C157.642593,174.218719 157.452682,172.333679 157.262772,170.448624 
	C155.243286,170.701263 153.083206,170.585556 151.236328,171.290451 
	C148.257660,172.427307 145.485352,174.104858 142.386032,175.675568 
	C141.637085,173.341187 140.896347,171.032379 140.155075,168.721939 
	C160.879395,162.282715 164.732666,160.456223 176.107819,148.143784 
	C184.788956,138.747330 189.644791,127.470642 190.066666,114.400421 
	C190.343887,105.811592 188.708481,97.732437 185.986450,89.616951 
	C183.431641,82.000023 182.908249,73.608322 179.764221,66.300423 
	C171.243286,46.494495 145.780624,41.662102 131.970947,56.595634 
z"/>
<path fill="#08080A" opacity="1.000000" stroke="none" 
	d="
M132.222046,56.329773 
	C145.780624,41.662102 171.243286,46.494495 179.764221,66.300423 
	C182.908249,73.608322 183.431641,82.000023 185.986450,89.616951 
	C188.708481,97.732437 190.343887,105.811592 190.066666,114.400421 
	C189.644791,127.470642 184.788956,138.747330 176.107819,148.143784 
	C164.732666,160.456223 160.879395,162.282715 140.155075,168.721939 
	C140.896347,171.032379 141.637085,173.341187 142.386032,175.675568 
	C145.485352,174.104858 148.257660,172.427307 151.236328,171.290451 
	C153.083206,170.585556 155.243286,170.701263 157.262772,170.448624 
	C157.452682,172.333679 157.642593,174.218719 157.704285,174.831177 
	C159.095917,177.443344 159.992157,179.125626 160.888382,180.807892 
	C159.209671,181.532715 157.589417,182.579269 155.836899,182.897629 
	C153.826492,183.262817 151.698807,182.982346 148.203445,182.982346 
	C150.555359,184.901672 151.694855,185.831558 153.420761,187.240021 
	C148.474258,190.461792 144.265686,188.283417 140.555496,186.527206 
	C137.599289,185.127899 135.138031,183.741882 131.743942,184.894562 
	C130.274704,185.393524 128.214203,185.356720 126.863548,184.681122 
	C125.328835,183.913437 124.287666,182.159088 123.031952,180.833649 
	C124.369621,180.203415 125.650688,179.351013 127.057610,178.992661 
	C129.438675,178.386215 131.899261,178.092010 135.358566,177.485580 
	C134.337234,174.884842 133.966431,172.020279 132.338120,170.526031 
	C131.385590,169.651886 128.200089,170.498428 126.405876,171.368454 
	C113.807167,177.477722 105.944099,187.944717 100.369705,200.400650 
	C99.762596,201.757248 99.447273,203.241440 98.935539,204.644180 
	C95.884247,213.008118 89.523491,214.357590 83.008804,208.190231 
	C81.255394,206.530289 79.207352,204.739609 76.982803,204.109421 
	C72.041489,202.709610 70.463615,198.773209 69.314339,194.725662 
	C68.904633,193.282730 70.054611,190.872986 71.235672,189.586914 
	C79.196129,180.918671 88.254288,173.088638 95.131989,163.656418 
	C99.620644,157.500595 101.050514,149.109833 103.827553,141.711548 
	C108.540756,129.155182 112.682182,116.343140 118.169601,104.135567 
	C120.956978,97.934647 126.214394,92.859215 130.223419,87.181938 
	C131.266724,85.704475 131.815384,83.877739 132.591232,82.211426 
	C130.875229,81.445053 129.161102,80.674385 127.439690,79.920349 
	C127.299751,79.859047 127.097458,79.952110 126.945168,79.905197 
	C124.414925,79.125710 121.888039,78.335320 119.360413,77.547356 
	C121.010422,75.308807 122.679329,73.083862 124.304283,70.827271 
	C125.532898,69.121078 126.897629,67.474274 127.858765,65.622955 
	C129.380325,62.692162 130.614929,59.612377 132.222046,56.329773 
M154.501083,177.578598 
	C154.501083,177.578598 154.431595,177.465027 154.501083,177.578598 
z"/>
<path fill="#6C0B06" opacity="1.000000" stroke="none" 
	d="
M154.466339,177.521820 
	C154.431595,177.465027 154.501083,177.578598 154.466339,177.521820 
z"/>
</svg>